# xmcd
#
# Track frame offsets: 
#        150
#        6926
#        35366
#        42147
#        56125
#        73190
#        75611
#        95640
#        111536
#        115885
#        154171
#        158123
#
# Disc length: 2374 seconds
#
# Revision: 1
# Processed by: cddbd v1.5.2PL0 Copyright (c) Steve Scherf et al.
# Submitted via: ExactAudioCopy v1.0b3
#
DISCID=9f09440c
DTITLE=Федоров и Волков - Таял
DYEAR=2005
DGENRE=Acoustic
TTITLE0=Титры 1
TTITLE1=Бен Ладен
TTITLE2=Полька Кого
TTITLE3=Таял 1
TTITLE4=Последняя видимость
TTITLE5=Отец
TTITLE6=Холода
TTITLE7=Дребезжать
TTITLE8=Полька
TTITLE9=Франциск
TTITLE10=Титры 2
TTITLE11=Таял 2
EXTD=
EXTT0=
EXTT1=
EXTT2=
EXTT3=
EXTT4=
EXTT5=
EXTT6=
EXTT7=
EXTT8=
EXTT9=
EXTT10=
EXTT11=
PLAYORDER=
